G04 #@! TF.GenerationSoftware,KiCad,Pcbnew,7.0.11-7.0.11~ubuntu22.04.1*
G04 #@! TF.CreationDate,2024-04-10T19:00:30+01:00*
G04 #@! TF.ProjectId,KitchenTimer,4b697463-6865-46e5-9469-6d65722e6b69,rev?*
G04 #@! TF.SameCoordinates,PX44794c0PY22243c0*
G04 #@! TF.FileFunction,Copper,L2,Bot*
G04 #@! TF.FilePolarity,Positive*
%FSLAX45Y45*%
G04 Gerber Fmt 4.5, Leading zero omitted, Abs format (unit mm)*
G04 Created by KiCad (PCBNEW 7.0.11-7.0.11~ubuntu22.04.1) date 2024-04-10 19:00:30*
%MOMM*%
%LPD*%
G01*
G04 APERTURE LIST*
G04 Aperture macros list*
%AMRoundRect*
0 Rectangle with rounded corners*
0 $1 Rounding radius*
0 $2 $3 $4 $5 $6 $7 $8 $9 X,Y pos of 4 corners*
0 Add a 4 corners polygon primitive as box body*
4,1,4,$2,$3,$4,$5,$6,$7,$8,$9,$2,$3,0*
0 Add four circle primitives for the rounded corners*
1,1,$1+$1,$2,$3*
1,1,$1+$1,$4,$5*
1,1,$1+$1,$6,$7*
1,1,$1+$1,$8,$9*
0 Add four rect primitives between the rounded corners*
20,1,$1+$1,$2,$3,$4,$5,0*
20,1,$1+$1,$4,$5,$6,$7,0*
20,1,$1+$1,$6,$7,$8,$9,0*
20,1,$1+$1,$8,$9,$2,$3,0*%
G04 Aperture macros list end*
G04 #@! TA.AperFunction,ComponentPad*
%ADD10R,1.800000X1.800000*%
G04 #@! TD*
G04 #@! TA.AperFunction,ComponentPad*
%ADD11C,1.800000*%
G04 #@! TD*
G04 #@! TA.AperFunction,ComponentPad*
%ADD12RoundRect,0.250000X0.625000X-0.350000X0.625000X0.350000X-0.625000X0.350000X-0.625000X-0.350000X0*%
G04 #@! TD*
G04 #@! TA.AperFunction,ComponentPad*
%ADD13O,1.750000X1.200000*%
G04 #@! TD*
G04 #@! TA.AperFunction,ViaPad*
%ADD14C,0.500000*%
G04 #@! TD*
G04 #@! TA.AperFunction,Conductor*
%ADD15C,0.300000*%
G04 #@! TD*
G04 APERTURE END LIST*
D10*
X1323000Y-2628000D03*
D11*
X1577000Y-2628000D03*
D12*
X2668000Y-1578000D03*
D13*
X2668000Y-1378000D03*
X2668000Y-1178000D03*
X2668000Y-978000D03*
X2668000Y-778000D03*
D11*
X150000Y-950000D03*
X150000Y-1950000D03*
X1670000Y-1450000D03*
D14*
X1148000Y-2143000D03*
X284000Y-2783000D03*
X875000Y-630000D03*
X944000Y-2818000D03*
X2212000Y-2140000D03*
X2243500Y-1318000D03*
X2118000Y-2408000D03*
X2116500Y-1319000D03*
D15*
X2118000Y-1578000D02*
X2117000Y-1577000D01*
X2668000Y-1578000D02*
X2118000Y-1578000D01*
X2116500Y-1319000D02*
X2117000Y-1577000D01*
X2117000Y-1577000D02*
X2117000Y-2407000D01*
X2117000Y-2407000D02*
X2118000Y-2408000D01*
G04 #@! TA.AperFunction,Conductor*
G36*
X2800539Y-97D02*
G01*
X2801743Y-202D01*
X2804488Y-443D01*
X2804596Y-453D01*
X2817178Y-1692D01*
X2819168Y-2054D01*
X2825647Y-3790D01*
X2826020Y-3897D01*
X2835157Y-6668D01*
X2836796Y-7295D01*
X2843387Y-10369D01*
X2843987Y-10669D01*
X2847320Y-12450D01*
X2851905Y-14901D01*
X2853171Y-15679D01*
X2859289Y-19963D01*
X2860043Y-20535D01*
X2866845Y-26117D01*
X2867747Y-26934D01*
X2873065Y-32253D01*
X2873883Y-33154D01*
X2879465Y-39957D01*
X2880037Y-40711D01*
X2884321Y-46828D01*
X2885099Y-48095D01*
X2889330Y-56011D01*
X2889633Y-56616D01*
X2892704Y-63203D01*
X2893332Y-64844D01*
X2896101Y-73971D01*
X2896212Y-74362D01*
X2897945Y-80830D01*
X2898308Y-82824D01*
X2899546Y-95388D01*
X2899558Y-95522D01*
X2899903Y-99460D01*
X2899950Y-100542D01*
X2899950Y-2262550D01*
X2897981Y-2269254D01*
X2892701Y-2273829D01*
X2887550Y-2274950D01*
X2575050Y-2274950D01*
X2575000Y-2274950D01*
X2559275Y-2274950D01*
X2527997Y-2278237D01*
X2527997Y-2278237D01*
X2527997Y-2278238D01*
X2497235Y-2284776D01*
X2497235Y-2284776D01*
X2467325Y-2294494D01*
X2438593Y-2307287D01*
X2438592Y-2307287D01*
X2411357Y-2323011D01*
X2411357Y-2323012D01*
X2385914Y-2341497D01*
X2385913Y-2341497D01*
X2362541Y-2362541D01*
X2341497Y-2385913D01*
X2341497Y-2385914D01*
X2323012Y-2411357D01*
X2323011Y-2411357D01*
X2307287Y-2438592D01*
X2307287Y-2438593D01*
X2294494Y-2467325D01*
X2284776Y-2497235D01*
X2284776Y-2497235D01*
X2278396Y-2527252D01*
X2278237Y-2527997D01*
X2275166Y-2557217D01*
X2274950Y-2559275D01*
X2274950Y-2887550D01*
X2272982Y-2894254D01*
X2267701Y-2898829D01*
X2262550Y-2899950D01*
X100542Y-2899950D01*
X99461Y-2899903D01*
X99200Y-2899880D01*
X95522Y-2899558D01*
X95388Y-2899546D01*
X82824Y-2898308D01*
X80830Y-2897945D01*
X74362Y-2896212D01*
X73971Y-2896101D01*
X64844Y-2893332D01*
X63203Y-2892704D01*
X56616Y-2889633D01*
X56011Y-2889330D01*
X48095Y-2885099D01*
X46828Y-2884321D01*
X40711Y-2880037D01*
X39957Y-2879465D01*
X33154Y-2873883D01*
X32253Y-2873065D01*
X26934Y-2867747D01*
X26117Y-2866845D01*
X20535Y-2860043D01*
X19963Y-2859289D01*
X15679Y-2853171D01*
X14901Y-2851905D01*
X12955Y-2848264D01*
X10669Y-2843987D01*
X10369Y-2843387D01*
X7295Y-2836796D01*
X6668Y-2835157D01*
X3897Y-2826020D01*
X3790Y-2825647D01*
X2054Y-2819168D01*
X1692Y-2817178D01*
X453Y-2804596D01*
X443Y-2804488D01*
X97Y-2800539D01*
X50Y-2799459D01*
X50Y-2625000D01*
X439434Y-2625000D01*
X441494Y-2648540D01*
X441494Y-2648541D01*
X447609Y-2671366D01*
X447610Y-2671366D01*
X447610Y-2671366D01*
X448665Y-2673630D01*
X457596Y-2692783D01*
X457596Y-2692783D01*
X471150Y-2712140D01*
X487860Y-2728849D01*
X507217Y-2742403D01*
X507217Y-2742404D01*
X528634Y-2752390D01*
X528634Y-2752390D01*
X528634Y-2752391D01*
X533725Y-2753755D01*
X551459Y-2758506D01*
X569103Y-2760050D01*
X569103Y-2760050D01*
X569103Y-2760050D01*
X580897Y-2760050D01*
X580897Y-2760050D01*
X598541Y-2758506D01*
X621366Y-2752390D01*
X642783Y-2742404D01*
X662140Y-2728850D01*
X668203Y-2722787D01*
X1182950Y-2722787D01*
X1182950Y-2722788D01*
X1183591Y-2728748D01*
X1188620Y-2742233D01*
X1188621Y-2742234D01*
X1197245Y-2753754D01*
X1197246Y-2753755D01*
X1208766Y-2762379D01*
X1208767Y-2762380D01*
X1222252Y-2767409D01*
X1222252Y-2767409D01*
X1222944Y-2767484D01*
X1228213Y-2768050D01*
X1417787Y-2768050D01*
X1423748Y-2767409D01*
X1437233Y-2762380D01*
X1448755Y-2753755D01*
X1457380Y-2742233D01*
X1460245Y-2734549D01*
X1464433Y-2728956D01*
X1470979Y-2726514D01*
X1477806Y-2727999D01*
X1480987Y-2730484D01*
X1481730Y-2731292D01*
X1481821Y-2731391D01*
X1481822Y-2731392D01*
X1500136Y-2745646D01*
X1500137Y-2745647D01*
X1500137Y-2745647D01*
X1520550Y-2756694D01*
X1530326Y-2760050D01*
X1542501Y-2764230D01*
X1542502Y-2764230D01*
X1542502Y-2764230D01*
X1565395Y-2768050D01*
X1565395Y-2768050D01*
X1588605Y-2768050D01*
X1588605Y-2768050D01*
X1611498Y-2764230D01*
X1633450Y-2756694D01*
X1653863Y-2745647D01*
X1672178Y-2731391D01*
X1687898Y-2714315D01*
X1700592Y-2694885D01*
X1709916Y-2673630D01*
X1715613Y-2651131D01*
X1715613Y-2651130D01*
X1717530Y-2628001D01*
X1717530Y-2627999D01*
X1715613Y-2604870D01*
X1715613Y-2604869D01*
X1709916Y-2582370D01*
X1700592Y-2561115D01*
X1687898Y-2541685D01*
X1687898Y-2541685D01*
X1687898Y-2541685D01*
X1672178Y-2524609D01*
X1672178Y-2524608D01*
X1672178Y-2524608D01*
X1653863Y-2510354D01*
X1653863Y-2510353D01*
X1633450Y-2499306D01*
X1633449Y-2499306D01*
X1611498Y-2491770D01*
X1592445Y-2488591D01*
X1588605Y-2487950D01*
X1565395Y-2487950D01*
X1561555Y-2488591D01*
X1542501Y-2491770D01*
X1520550Y-2499306D01*
X1520549Y-2499306D01*
X1500137Y-2510353D01*
X1500136Y-2510354D01*
X1481822Y-2524608D01*
X1481822Y-2524609D01*
X1480987Y-2525516D01*
X1474998Y-2529115D01*
X1468014Y-2528905D01*
X1462252Y-2524952D01*
X1460245Y-2521451D01*
X1457380Y-2513767D01*
X1457379Y-2513766D01*
X1448755Y-2502246D01*
X1448754Y-2502245D01*
X1437233Y-2493621D01*
X1437233Y-2493620D01*
X1423748Y-2488591D01*
X1423748Y-2488591D01*
X1417788Y-2487950D01*
X1417788Y-2487950D01*
X1417787Y-2487950D01*
X1417786Y-2487950D01*
X1228213Y-2487950D01*
X1228212Y-2487950D01*
X1222252Y-2488591D01*
X1208767Y-2493620D01*
X1208766Y-2493621D01*
X1197246Y-2502245D01*
X1197245Y-2502246D01*
X1188621Y-2513766D01*
X1188620Y-2513767D01*
X1183591Y-2527252D01*
X1182950Y-2533212D01*
X1182950Y-2533214D01*
X1182950Y-2722787D01*
X668203Y-2722787D01*
X678850Y-2712140D01*
X692404Y-2692783D01*
X702390Y-2671366D01*
X708506Y-2648541D01*
X710566Y-2625000D01*
X708506Y-2601459D01*
X702390Y-2578634D01*
X692404Y-2557217D01*
X692403Y-2557217D01*
X678849Y-2537860D01*
X662140Y-2521151D01*
X642783Y-2507597D01*
X642783Y-2507596D01*
X631307Y-2502245D01*
X621366Y-2497610D01*
X621366Y-2497610D01*
X621366Y-2497609D01*
X598541Y-2491494D01*
X598540Y-2491494D01*
X580897Y-2489950D01*
X580897Y-2489950D01*
X569103Y-2489950D01*
X569103Y-2489950D01*
X551460Y-2491494D01*
X551459Y-2491494D01*
X528634Y-2497609D01*
X528634Y-2497610D01*
X507217Y-2507596D01*
X507217Y-2507597D01*
X487860Y-2521151D01*
X471151Y-2537860D01*
X471150Y-2537860D01*
X457597Y-2557217D01*
X457596Y-2557217D01*
X447610Y-2578634D01*
X447609Y-2578634D01*
X441494Y-2601459D01*
X441494Y-2601460D01*
X439434Y-2625000D01*
X439434Y-2625000D01*
X50Y-2625000D01*
X50Y-2015934D01*
X2018Y-2009230D01*
X7299Y-2004655D01*
X14215Y-2003660D01*
X20570Y-2006563D01*
X23806Y-2010953D01*
X26407Y-2016885D01*
X39102Y-2036315D01*
X39102Y-2036315D01*
X39102Y-2036315D01*
X54822Y-2053391D01*
X54822Y-2053391D01*
X54822Y-2053392D01*
X73137Y-2067646D01*
X73137Y-2067647D01*
X73137Y-2067647D01*
X93550Y-2078694D01*
X104949Y-2082607D01*
X115501Y-2086230D01*
X115502Y-2086230D01*
X115502Y-2086230D01*
X138395Y-2090050D01*
X138395Y-2090050D01*
X161605Y-2090050D01*
X161605Y-2090050D01*
X184498Y-2086230D01*
X206450Y-2078694D01*
X226863Y-2067647D01*
X245178Y-2053391D01*
X260898Y-2036315D01*
X273592Y-2016885D01*
X282916Y-1995630D01*
X288613Y-1973130D01*
X288634Y-1972883D01*
X290530Y-1950001D01*
X290530Y-1949999D01*
X288614Y-1926870D01*
X288613Y-1926869D01*
X287480Y-1922393D01*
X849067Y-1922393D01*
X850606Y-1931121D01*
X852113Y-1939671D01*
X859062Y-1955780D01*
X859062Y-1955781D01*
X859063Y-1955781D01*
X864528Y-1963122D01*
X869539Y-1969853D01*
X882979Y-1981130D01*
X890749Y-1985032D01*
X898656Y-1989004D01*
X898656Y-1989004D01*
X898657Y-1989004D01*
X915728Y-1993050D01*
X915728Y-1993050D01*
X928870Y-1993050D01*
X928871Y-1993050D01*
X941925Y-1991524D01*
X958412Y-1985524D01*
X973070Y-1975883D01*
X985109Y-1963122D01*
X993881Y-1947928D01*
X998913Y-1931121D01*
X999596Y-1919393D01*
X1907067Y-1919393D01*
X1909135Y-1931120D01*
X1910113Y-1936671D01*
X1917062Y-1952780D01*
X1917062Y-1952781D01*
X1917063Y-1952781D01*
X1922528Y-1960122D01*
X1927539Y-1966853D01*
X1940979Y-1978130D01*
X1946952Y-1981130D01*
X1956656Y-1986004D01*
X1956656Y-1986004D01*
X1956657Y-1986004D01*
X1973728Y-1990050D01*
X1973728Y-1990050D01*
X1986870Y-1990050D01*
X1986871Y-1990050D01*
X1999925Y-1988524D01*
X2016412Y-1982524D01*
X2031070Y-1972883D01*
X2031070Y-1972883D01*
X2031579Y-1972455D01*
X2037980Y-1969654D01*
X2044879Y-1970758D01*
X2050086Y-1975416D01*
X2051950Y-1981954D01*
X2051950Y-2368483D01*
X2050195Y-2374574D01*
X2050256Y-2374604D01*
X2050083Y-2374964D01*
X2050050Y-2375079D01*
X2049954Y-2375231D01*
X2044368Y-2391194D01*
X2042475Y-2408000D01*
X2042475Y-2408000D01*
X2044368Y-2424806D01*
X2049954Y-2440769D01*
X2049955Y-2440770D01*
X2058952Y-2455088D01*
X2058952Y-2455089D01*
X2070911Y-2467048D01*
X2070911Y-2467048D01*
X2085230Y-2476045D01*
X2085230Y-2476045D01*
X2085231Y-2476046D01*
X2085231Y-2476046D01*
X2092491Y-2478586D01*
X2101194Y-2481631D01*
X2118000Y-2483525D01*
X2118000Y-2483525D01*
X2118000Y-2483525D01*
X2134806Y-2481631D01*
X2134806Y-2481631D01*
X2150769Y-2476046D01*
X2150769Y-2476045D01*
X2150769Y-2476045D01*
X2150770Y-2476045D01*
X2165088Y-2467048D01*
X2165089Y-2467048D01*
X2165089Y-2467048D01*
X2177048Y-2455089D01*
X2186045Y-2440770D01*
X2186045Y-2440769D01*
X2186045Y-2440769D01*
X2186046Y-2440769D01*
X2191631Y-2424806D01*
X2191631Y-2424806D01*
X2191631Y-2424806D01*
X2193525Y-2408000D01*
X2193525Y-2408000D01*
X2191631Y-2391194D01*
X2189783Y-2385913D01*
X2186046Y-2375231D01*
X2185457Y-2374294D01*
X2183951Y-2371897D01*
X2182050Y-2365300D01*
X2182050Y-1655450D01*
X2184019Y-1648746D01*
X2189299Y-1644171D01*
X2194450Y-1643050D01*
X2528936Y-1643050D01*
X2535640Y-1645018D01*
X2539490Y-1648940D01*
X2546229Y-1659866D01*
X2558634Y-1672271D01*
X2573567Y-1681481D01*
X2590220Y-1687000D01*
X2600499Y-1688050D01*
X2735501Y-1688050D01*
X2745780Y-1687000D01*
X2762433Y-1681481D01*
X2777366Y-1672271D01*
X2789771Y-1659866D01*
X2798981Y-1644933D01*
X2804500Y-1628280D01*
X2805550Y-1618001D01*
X2805550Y-1537999D01*
X2804500Y-1527720D01*
X2798981Y-1511067D01*
X2789771Y-1496134D01*
X2777366Y-1483729D01*
X2771026Y-1479818D01*
X2766354Y-1474624D01*
X2765231Y-1467727D01*
X2768016Y-1461319D01*
X2769870Y-1459518D01*
X2771789Y-1458009D01*
X2785552Y-1442126D01*
X2796060Y-1423924D01*
X2802934Y-1404063D01*
X2805925Y-1383260D01*
X2804925Y-1362267D01*
X2799970Y-1341842D01*
X2799970Y-1341842D01*
X2791240Y-1322726D01*
X2791240Y-1322725D01*
X2791240Y-1322725D01*
X2791240Y-1322725D01*
X2779049Y-1305605D01*
X2779048Y-1305605D01*
X2779048Y-1305604D01*
X2763838Y-1291101D01*
X2759706Y-1288446D01*
X2755130Y-1283165D01*
X2754136Y-1276250D01*
X2757038Y-1269894D01*
X2758745Y-1268267D01*
X2763028Y-1264898D01*
X2771789Y-1258009D01*
X2785552Y-1242126D01*
X2796060Y-1223924D01*
X2802934Y-1204063D01*
X2805925Y-1183260D01*
X2804925Y-1162267D01*
X2799970Y-1141842D01*
X2799970Y-1141842D01*
X2791240Y-1122726D01*
X2791240Y-1122725D01*
X2791240Y-1122725D01*
X2791240Y-1122725D01*
X2779049Y-1105605D01*
X2779048Y-1105605D01*
X2779048Y-1105604D01*
X2763838Y-1091101D01*
X2759706Y-1088446D01*
X2755130Y-1083165D01*
X2754136Y-1076250D01*
X2757038Y-1069894D01*
X2758745Y-1068267D01*
X2771788Y-1058009D01*
X2771789Y-1058009D01*
X2785552Y-1042126D01*
X2796060Y-1023924D01*
X2802934Y-1004063D01*
X2805925Y-983260D01*
X2804925Y-962267D01*
X2799970Y-941842D01*
X2799970Y-941842D01*
X2791240Y-922726D01*
X2791240Y-922725D01*
X2791240Y-922725D01*
X2791240Y-922725D01*
X2779049Y-905605D01*
X2779048Y-905605D01*
X2779048Y-905604D01*
X2763838Y-891101D01*
X2759661Y-888417D01*
X2755086Y-883137D01*
X2754091Y-876221D01*
X2756994Y-869865D01*
X2758700Y-868239D01*
X2771754Y-857973D01*
X2785511Y-842097D01*
X2785511Y-842096D01*
X2796014Y-823904D01*
X2796015Y-823903D01*
X2802885Y-804052D01*
X2802885Y-804051D01*
X2803037Y-803000D01*
X2695956Y-803000D01*
X2699828Y-798794D01*
X2704855Y-787333D01*
X2705889Y-774860D01*
X2702816Y-762728D01*
X2696461Y-753000D01*
X2802626Y-753000D01*
X2799923Y-741859D01*
X2791196Y-722749D01*
X2779011Y-705638D01*
X2779010Y-705637D01*
X2763807Y-691141D01*
X2746134Y-679783D01*
X2726631Y-671976D01*
X2706004Y-668000D01*
X2693000Y-668000D01*
X2693000Y-749938D01*
X2686095Y-744564D01*
X2674258Y-740500D01*
X2664893Y-740500D01*
X2655655Y-742041D01*
X2644649Y-747998D01*
X2643000Y-749789D01*
X2643000Y-668000D01*
X2635260Y-668000D01*
X2619588Y-669497D01*
X2619587Y-669497D01*
X2599431Y-675415D01*
X2580759Y-685041D01*
X2564246Y-698027D01*
X2564246Y-698027D01*
X2550489Y-713903D01*
X2550489Y-713904D01*
X2539986Y-732096D01*
X2539985Y-732097D01*
X2533114Y-751948D01*
X2533114Y-751948D01*
X2532963Y-753000D01*
X2640044Y-753000D01*
X2636172Y-757206D01*
X2631145Y-768667D01*
X2630111Y-781139D01*
X2633184Y-793272D01*
X2639539Y-803000D01*
X2533374Y-803000D01*
X2536077Y-814141D01*
X2544804Y-833251D01*
X2556989Y-850362D01*
X2556990Y-850362D01*
X2572193Y-864859D01*
X2576336Y-867521D01*
X2580911Y-872802D01*
X2581906Y-879718D01*
X2579003Y-886073D01*
X2577297Y-887700D01*
X2564212Y-897990D01*
X2564211Y-897991D01*
X2550448Y-913875D01*
X2539940Y-932075D01*
X2533066Y-951936D01*
X2533066Y-951937D01*
X2531580Y-962267D01*
X2530075Y-972740D01*
X2531075Y-993733D01*
X2536030Y-1014158D01*
X2536030Y-1014158D01*
X2544760Y-1033274D01*
X2544760Y-1033275D01*
X2544760Y-1033275D01*
X2544760Y-1033275D01*
X2551063Y-1042126D01*
X2556952Y-1050395D01*
X2556952Y-1050396D01*
X2572162Y-1064898D01*
X2576294Y-1067554D01*
X2580870Y-1072834D01*
X2581864Y-1079750D01*
X2578962Y-1086106D01*
X2577256Y-1087733D01*
X2564211Y-1097991D01*
X2550448Y-1113875D01*
X2539940Y-1132075D01*
X2533066Y-1151937D01*
X2533066Y-1151937D01*
X2531580Y-1162267D01*
X2530075Y-1172740D01*
X2531075Y-1193733D01*
X2536030Y-1214158D01*
X2536030Y-1214158D01*
X2544760Y-1233274D01*
X2544760Y-1233275D01*
X2544760Y-1233275D01*
X2544760Y-1233275D01*
X2553372Y-1245369D01*
X2556952Y-1250395D01*
X2556952Y-1250396D01*
X2572162Y-1264898D01*
X2576294Y-1267554D01*
X2580870Y-1272834D01*
X2581864Y-1279750D01*
X2578962Y-1286106D01*
X2577256Y-1287733D01*
X2564211Y-1297991D01*
X2550448Y-1313875D01*
X2539940Y-1332075D01*
X2533066Y-1351937D01*
X2533066Y-1351937D01*
X2530435Y-1370237D01*
X2530075Y-1372740D01*
X2531075Y-1393733D01*
X2536030Y-1414158D01*
X2536030Y-1414158D01*
X2544760Y-1433274D01*
X2544760Y-1433275D01*
X2544760Y-1433275D01*
X2544760Y-1433275D01*
X2556951Y-1450395D01*
X2556952Y-1450395D01*
X2567208Y-1460175D01*
X2570702Y-1466226D01*
X2570369Y-1473205D01*
X2566316Y-1478896D01*
X2565161Y-1479703D01*
X2558634Y-1483729D01*
X2546229Y-1496134D01*
X2546229Y-1496134D01*
X2540328Y-1505701D01*
X2539490Y-1507060D01*
X2534295Y-1511732D01*
X2528936Y-1512950D01*
X2194302Y-1512950D01*
X2187598Y-1510981D01*
X2183023Y-1505701D01*
X2181902Y-1500574D01*
X2181888Y-1493486D01*
X2181630Y-1360006D01*
X2183531Y-1353384D01*
X2184440Y-1351937D01*
X2184546Y-1351769D01*
X2190131Y-1335806D01*
X2192025Y-1319000D01*
X2191447Y-1313874D01*
X2190131Y-1302194D01*
X2184545Y-1286231D01*
X2184545Y-1286230D01*
X2175548Y-1271912D01*
X2175548Y-1271911D01*
X2163589Y-1259952D01*
X2163588Y-1259952D01*
X2149270Y-1250955D01*
X2149269Y-1250955D01*
X2133306Y-1245369D01*
X2116500Y-1243475D01*
X2116500Y-1243475D01*
X2099694Y-1245369D01*
X2083730Y-1250955D01*
X2083730Y-1250955D01*
X2069411Y-1259952D01*
X2069411Y-1259952D01*
X2057452Y-1271911D01*
X2057452Y-1271912D01*
X2048455Y-1286230D01*
X2048454Y-1286231D01*
X2042868Y-1302194D01*
X2040975Y-1319000D01*
X2040975Y-1319000D01*
X2042868Y-1335806D01*
X2048454Y-1351769D01*
X2049629Y-1353639D01*
X2051530Y-1360212D01*
X2051933Y-1568500D01*
X2051764Y-1570050D01*
X2051797Y-1570053D01*
X2051724Y-1570830D01*
X2051944Y-1577826D01*
X2051950Y-1578216D01*
X2051950Y-1848713D01*
X2049981Y-1855417D01*
X2044701Y-1859992D01*
X2037785Y-1860987D01*
X2031579Y-1858212D01*
X2024021Y-1851870D01*
X2024021Y-1851870D01*
X2008344Y-1843996D01*
X2008343Y-1843996D01*
X1991272Y-1839950D01*
X1978129Y-1839950D01*
X1967685Y-1841171D01*
X1965074Y-1841476D01*
X1965074Y-1841476D01*
X1948588Y-1847476D01*
X1948588Y-1847476D01*
X1933931Y-1857117D01*
X1933930Y-1857117D01*
X1921891Y-1869878D01*
X1913119Y-1885072D01*
X1908087Y-1901879D01*
X1908087Y-1901879D01*
X1907067Y-1919393D01*
X999596Y-1919393D01*
X999933Y-1913606D01*
X996886Y-1896329D01*
X989938Y-1880220D01*
X979461Y-1866147D01*
X972275Y-1860117D01*
X966021Y-1854870D01*
X966021Y-1854870D01*
X950344Y-1846996D01*
X950343Y-1846996D01*
X933272Y-1842950D01*
X920129Y-1842950D01*
X909685Y-1844171D01*
X907074Y-1844476D01*
X907074Y-1844476D01*
X890588Y-1850476D01*
X890588Y-1850476D01*
X875931Y-1860117D01*
X875930Y-1860117D01*
X863891Y-1872878D01*
X855119Y-1888072D01*
X850087Y-1904879D01*
X850087Y-1904879D01*
X849067Y-1922393D01*
X287480Y-1922393D01*
X282916Y-1904370D01*
X273592Y-1883115D01*
X260898Y-1863685D01*
X260898Y-1863685D01*
X260898Y-1863685D01*
X245178Y-1846609D01*
X245178Y-1846608D01*
X245178Y-1846608D01*
X226863Y-1832353D01*
X226863Y-1832353D01*
X206450Y-1821306D01*
X206449Y-1821306D01*
X184498Y-1813770D01*
X167328Y-1810905D01*
X161605Y-1809950D01*
X138395Y-1809950D01*
X133816Y-1810714D01*
X115501Y-1813770D01*
X93550Y-1821306D01*
X93549Y-1821306D01*
X73137Y-1832353D01*
X73137Y-1832353D01*
X54822Y-1846608D01*
X54822Y-1846608D01*
X54822Y-1846609D01*
X54822Y-1846609D01*
X49978Y-1851870D01*
X39102Y-1863685D01*
X26408Y-1883115D01*
X23806Y-1889047D01*
X19310Y-1894395D01*
X12636Y-1896464D01*
X5903Y-1894597D01*
X1249Y-1889386D01*
X50Y-1884066D01*
X50Y-1450000D01*
X1529520Y-1450000D01*
X1531436Y-1473122D01*
X1537132Y-1495613D01*
X1546451Y-1516861D01*
X1554881Y-1529763D01*
X1625555Y-1459089D01*
X1625633Y-1460126D01*
X1630589Y-1472754D01*
X1639046Y-1483360D01*
X1650255Y-1491002D01*
X1661030Y-1494325D01*
X1590120Y-1565235D01*
X1593165Y-1567605D01*
X1613570Y-1578648D01*
X1613571Y-1578648D01*
X1635514Y-1586181D01*
X1658399Y-1590000D01*
X1681601Y-1590000D01*
X1704486Y-1586181D01*
X1726429Y-1578648D01*
X1726430Y-1578648D01*
X1746835Y-1567605D01*
X1749880Y-1565235D01*
X1749880Y-1565235D01*
X1678823Y-1494178D01*
X1683414Y-1493486D01*
X1695636Y-1487601D01*
X1705580Y-1478374D01*
X1712362Y-1466626D01*
X1714150Y-1458795D01*
X1785119Y-1529763D01*
X1793548Y-1516861D01*
X1802868Y-1495613D01*
X1808564Y-1473122D01*
X1810480Y-1450000D01*
X1810480Y-1449999D01*
X1808564Y-1426878D01*
X1802868Y-1404386D01*
X1793548Y-1383139D01*
X1785119Y-1370237D01*
X1714445Y-1440910D01*
X1714367Y-1439873D01*
X1709411Y-1427246D01*
X1700953Y-1416640D01*
X1689745Y-1408998D01*
X1678970Y-1405675D01*
X1749880Y-1334765D01*
X1749880Y-1334765D01*
X1746836Y-1332396D01*
X1746835Y-1332395D01*
X1726430Y-1321352D01*
X1726429Y-1321352D01*
X1704486Y-1313819D01*
X1681601Y-1310000D01*
X1658399Y-1310000D01*
X1635514Y-1313819D01*
X1613571Y-1321352D01*
X1613570Y-1321352D01*
X1593165Y-1332395D01*
X1590120Y-1334765D01*
X1661177Y-1405821D01*
X1656586Y-1406513D01*
X1644364Y-1412399D01*
X1634420Y-1421626D01*
X1627637Y-1433374D01*
X1625850Y-1441205D01*
X1554881Y-1370237D01*
X1546452Y-1383139D01*
X1537132Y-1404386D01*
X1531436Y-1426878D01*
X1529520Y-1449999D01*
X1529520Y-1450000D01*
X50Y-1450000D01*
X50Y-1015934D01*
X2018Y-1009230D01*
X7299Y-1004655D01*
X14215Y-1003660D01*
X20570Y-1006563D01*
X23806Y-1010953D01*
X26407Y-1016885D01*
X39102Y-1036315D01*
X39102Y-1036315D01*
X39102Y-1036315D01*
X54822Y-1053391D01*
X54822Y-1053392D01*
X54822Y-1053392D01*
X73137Y-1067646D01*
X73137Y-1067647D01*
X73137Y-1067647D01*
X93550Y-1078694D01*
X96628Y-1079750D01*
X115501Y-1086230D01*
X115502Y-1086230D01*
X115502Y-1086230D01*
X138395Y-1090050D01*
X138395Y-1090050D01*
X161605Y-1090050D01*
X161605Y-1090050D01*
X184498Y-1086230D01*
X206450Y-1078694D01*
X226863Y-1067647D01*
X245178Y-1053391D01*
X260898Y-1036315D01*
X273592Y-1016885D01*
X282916Y-995630D01*
X288613Y-973130D01*
X288614Y-973130D01*
X290530Y-950001D01*
X290530Y-949999D01*
X288614Y-926870D01*
X288613Y-926869D01*
X282916Y-904370D01*
X273592Y-883115D01*
X260898Y-863685D01*
X260898Y-863685D01*
X260898Y-863685D01*
X245178Y-846609D01*
X245178Y-846608D01*
X245178Y-846608D01*
X226863Y-832353D01*
X226863Y-832353D01*
X206450Y-821306D01*
X206449Y-821306D01*
X184498Y-813770D01*
X167328Y-810905D01*
X161605Y-809950D01*
X138395Y-809950D01*
X133816Y-810714D01*
X115501Y-813770D01*
X93550Y-821306D01*
X93549Y-821306D01*
X73137Y-832353D01*
X73137Y-832353D01*
X54822Y-846608D01*
X54822Y-846608D01*
X39102Y-863685D01*
X26408Y-883115D01*
X23806Y-889047D01*
X19310Y-894395D01*
X12636Y-896464D01*
X5903Y-894597D01*
X1249Y-889386D01*
X50Y-884066D01*
X50Y-637450D01*
X2018Y-630746D01*
X7299Y-626171D01*
X12450Y-625050D01*
X340725Y-625050D01*
X340725Y-625050D01*
X372003Y-621763D01*
X402765Y-615224D01*
X432676Y-605505D01*
X461407Y-592713D01*
X488643Y-576989D01*
X514087Y-558503D01*
X537459Y-537459D01*
X558503Y-514087D01*
X576989Y-488643D01*
X592713Y-461407D01*
X605505Y-432676D01*
X615224Y-402765D01*
X621763Y-372003D01*
X625050Y-340725D01*
X625050Y-325000D01*
X625050Y-324950D01*
X625050Y-275000D01*
X2189434Y-275000D01*
X2191494Y-298540D01*
X2191494Y-298541D01*
X2197609Y-321366D01*
X2197610Y-321366D01*
X2197610Y-321366D01*
X2202603Y-332075D01*
X2207596Y-342783D01*
X2207597Y-342783D01*
X2221151Y-362140D01*
X2237860Y-378849D01*
X2257217Y-392403D01*
X2257217Y-392403D01*
X2278634Y-402390D01*
X2278634Y-402390D01*
X2278634Y-402390D01*
X2284129Y-403863D01*
X2301459Y-408506D01*
X2319103Y-410050D01*
X2319103Y-410050D01*
X2319103Y-410050D01*
X2330897Y-410050D01*
X2330897Y-410050D01*
X2348541Y-408506D01*
X2371366Y-402390D01*
X2392783Y-392403D01*
X2412140Y-378849D01*
X2428850Y-362140D01*
X2442404Y-342783D01*
X2452390Y-321366D01*
X2458506Y-298541D01*
X2460566Y-275000D01*
X2458506Y-251459D01*
X2452390Y-228634D01*
X2442404Y-207217D01*
X2442403Y-207217D01*
X2428849Y-187860D01*
X2412140Y-171151D01*
X2392783Y-157597D01*
X2392783Y-157596D01*
X2382075Y-152603D01*
X2371366Y-147610D01*
X2371366Y-147610D01*
X2371366Y-147609D01*
X2348541Y-141494D01*
X2348540Y-141494D01*
X2330897Y-139950D01*
X2330897Y-139950D01*
X2319103Y-139950D01*
X2319103Y-139950D01*
X2301460Y-141494D01*
X2301459Y-141494D01*
X2278634Y-147609D01*
X2278634Y-147610D01*
X2257217Y-157596D01*
X2257217Y-157597D01*
X2237860Y-171151D01*
X2221151Y-187860D01*
X2221150Y-187860D01*
X2207597Y-207216D01*
X2207597Y-207217D01*
X2197610Y-228633D01*
X2197609Y-228634D01*
X2191494Y-251459D01*
X2191494Y-251460D01*
X2189434Y-275000D01*
X2189434Y-275000D01*
X625050Y-275000D01*
X625050Y-12450D01*
X627019Y-5746D01*
X632299Y-1171D01*
X637450Y-50D01*
X2799459Y-50D01*
X2800539Y-97D01*
G37*
G04 #@! TD.AperFunction*
M02*
